<?xml version="1.0" encoding="UTF-8"?>
<!-- Created with Inkscape (http://www.inkscape.org/) -->
<svg id="svg2" width="602" height="456" version="1.1" viewBox="0 0 602 456" xmlns="http://www.w3.org/2000/svg">
 <g id="g8" transform="matrix(.89063 0 0 .89063 146 0)">
  <path id="path304" d="m319.35 102.68c-2.0378-0.11831-4.2422 0.50531-6.7625 1.7212-4.5921 2.2152-8.145 9.4012-23.572 47.608-9.9931 24.75-24.586 58.5-32.422 75-15.07 31.732-18.979 42.781-23.682 66.994-8.2012 42.223 1.2418 82.356 24.963 106.08 21.702 21.702 54.956 30.708 84.744 22.949 25.152-6.5512 43.751-21.459 54.932-44.019 7.915-15.969 10.464-29.069 10.412-53.601-0.0727-34.295-8.0225-61.045-35.461-119.4-17.256-36.698-26.643-57.629-35.266-78.6-7.15-17.389-11.77-24.376-17.883-24.731z" fill="#5af"/>
  <path id="path860" d="m279.18 265.97c-3.3129-0.312-7.65 3.5738-12.598 11.853-8.0488 13.469-13.511 36.906-11.865 50.903 4.0278 34.262 20.052 52.034 35.571 39.453 4.1536-3.3671 4.7008-5.4773 4.6021-17.505-0.0619-7.52-2.0789-21.486-4.4922-31.03-2.5535-10.099-4.3945-23.525-4.3945-32.117 0-13.824-2.5642-21.156-6.8238-21.558z" fill="#aadbff"/>
 </g>
 <text id="text972" fill="none" font-family="'6809 Chargen'" font-size="192px" opacity=".18892" stroke="#ffdcb8" stroke-linecap="round" stroke-linejoin="bevel" stroke-width="11.339" style="shape-inside:url(#rect974);white-space:pre" xml:space="preserve"/>
</svg>
