<?xml version="1.0" encoding="UTF-8"?>
<!-- Created with Inkscape (http://www.inkscape.org/) -->
<svg id="svg2" width="512" height="512" version="1.1" viewBox="0 0 512 512" xmlns="http://www.w3.org/2000/svg">
 <g id="g8">
  <g id="g2446" transform="scale(6.25)" stroke-width=".16">
   <rect id="rect2008" width="81.92" height="81.92" style="-inkscape-stroke:none;paint-order:markers fill stroke"/>
   <path id="path304" d="m51.096 16.428c-0.32604-0.01893-0.67875 0.08085-1.082 0.27539-0.73474 0.35444-1.3032 1.5042-3.7715 7.6172-1.5989 3.96-3.9337 9.36-5.1875 12-2.4112 5.0771-3.0366 6.8449-3.7891 10.719-1.3122 6.7557 0.19869 13.177 3.9941 16.973 3.4724 3.4724 8.7929 4.9132 13.559 3.6719 4.0244-1.0482 7.0001-3.4335 8.7891-7.043 1.2664-2.5551 1.6743-4.651 1.666-8.5762-0.01164-5.4872-1.2836-9.7672-5.6738-19.104-2.761-5.8717-4.2629-9.2207-5.6426-12.576-1.144-2.7822-1.8832-3.9002-2.8613-3.957z" fill="#5af" stroke-width=".16"/>
   <path id="path860" d="m44.668 42.555c-0.53007-0.04992-1.224 0.57181-2.0156 1.8965-1.2878 2.1551-2.1617 5.905-1.8984 8.1445 0.64444 5.4819 3.2084 8.3254 5.6914 6.3125 0.66457-0.53874 0.75212-0.87637 0.73633-2.8008-0.0099-1.2032-0.33262-3.4377-0.71875-4.9648-0.40856-1.6159-0.70312-3.764-0.70312-5.1387 0-2.2119-0.41028-3.385-1.0918-3.4492z" fill="#aadbff" stroke-width=".16"/>
  </g>
 </g>
</svg>
